:SAMPLES-PER-SECOND 30
:FULLY-SPECIFIED
:DEGREES
505
root  -38.7891 33.975 -47.3834 -175.607 -7.2833 -174.237
RightUpLeg  -19.3617 -24.0503 13.6685
RightLeg  18.1868 -7.86021 -2.02559
RightFoot  -0.782293 -0.00447458 0.186949
RightToes  -4.65769 -0.0129636 -0.0435516
Spine  -0.386243 -0.301046 2.12342
Spine1  -0.776851 -0.717871 4.74351
HEad  -57.3097 -4.25642 1.44877
LeftShoulder1  -1.94126e-019 -3.10601e-018 -2.51263e-017
LeftArm  -13.4224 10.4291 -80.0053
LeftForeArm  26.1416 -33.7456 -6.09045
LeftHand  -0.327812 1.55018 9.80955
RightShoulder  -4.96962e-017 0 -2.36833e-017
RightArm  -35.3542 -22.5798 74.6814
RightForeArm  64.8333 8.15369 1.37215
RightHand  -0.279162 -2.67609 -11.5756
LeftUpLeg  -15.9661 16.1401 7.08357
LeftLeg  49.1343 5.23918 5.29122
LeftFoot  -1.60954 -0.00414656 -0.133672
LeftToes  -38.702 1.46665e-006 1.03344e-007
506
root  -38.9823 34.0513 -47.9624 -176.038 -7.03045 -174.448
RightUpLeg  -17.5031 -22.5412 12.4791
RightLeg  17.8861 -9.23048 -2.3236
RightFoot  -1.02025 -0.00736024 0.254495
RightToes  -5.46057 -0.0160278 -0.0509426
Spine  -0.360566 -0.347013 1.99022
Spine1  -0.744895 -0.839273 4.49409
HEad  -57.5997 -4.87311 3.4879
LeftShoulder1  -1.94126e-019 -3.10601e-018 -2.51263e-017
LeftArm  -10.2359 11.3941 -80.3953
LeftForeArm  25.0637 -35.1003 -6.42422
LeftHand  -0.334297 0.792304 8.42765
RightShoulder  -4.96962e-017 0 -2.36833e-017
RightArm  -37.5802 -22.5338 75.1862
RightForeArm  66.5241 7.10388 1.19243
RightHand  -0.282652 -2.75177 -12.0567
LeftUpLeg  -17.4568 14.9236 7.55604
LeftLeg  50.5653 5.69357 6.03899
LeftFoot  -1.24187 -0.00301395 -0.116571
LeftToes  -30.2146 1.46665e-006 1.03344e-007
507
root  -39.2566 34.1837 -48.5267 -176.608 -6.78209 -174.945
RightUpLeg  -15.0234 -21.7853 10.9379
RightLeg  16.4994 -9.88292 -2.23402
RightFoot  -0.711577 -0.00487536 0.229194
RightToes  -6.59109 -0.0199484 -0.061285
Spine  -0.267464 -0.41146 1.76843
Spine1  -0.573962 -0.964849 4.08125
HEad  -57.5344 -5.17661 4.71087
LeftShoulder1  -1.94126e-019 -3.10601e-018 -2.51263e-017
LeftArm  -8.38164 12.4617 -81.0648
LeftForeArm  27.5708 -35.6421 -6.41228
LeftHand  -0.349116 -0.578011 6.89614
RightShoulder  -4.96962e-017 0 -2.36833e-017
RightArm  -39.0624 -22.4076 75.8726
RightForeArm  67.5678 6.70336 1.11978
RightHand  -0.25794 -3.01594 -12.1441
LeftUpLeg  -17.6575 12.1188 7.73804
LeftLeg  47.2655 7.01807 6.62471
LeftFoot  -2.2985 -0.00973781 -0.323877
LeftToes  -29.0765 1.46665e-006 1.03344e-007
508
root  -39.5742 34.3198 -49.0238 -176.427 -6.21096 -175.439
RightUpLeg  -13.2895 -21.9041 9.73617
RightLeg  14.6301 -9.30938 -1.78981
RightFoot  -0.00458816 0.00284749 0.116964
RightToes  -8.03786 -0.025262 -0.0744042
Spine  -0.432348 -0.276122 1.5158
Spine1  -0.898019 -0.654325 3.59206
HEad  -57.1054 -5.44855 5.40136
LeftShoulder1  -1.94126e-019 -3.10601e-018 -2.51263e-017
LeftArm  -7.11589 14.0625 -81.9509
LeftForeArm  31.3291 -36.2966 -6.36195
LeftHand  -0.367066 -1.74839 6.14696
RightShoulder  -4.96962e-017 0 -2.36833e-017
RightArm  -38.779 -22.9667 76.7207
RightForeArm  65.908 7.49217 1.26311
RightHand  -0.267401 -2.7579 -11.3999
LeftUpLeg  -17.5962 8.05146 7.96065
LeftLeg  39.9953 8.26877 6.02711
LeftFoot  -2.38987 -0.0108093 -0.35668
LeftToes  -27.9658 1.46665e-006 1.03344e-007
509
root  -39.9174 34.4301 -49.4159 -175.789 -5.08755 -175.997
RightUpLeg  -12.459 -21.2427 8.62639
RightLeg  13.2771 -8.81835 -1.48192
RightFoot  0.681198 0.00854162 0.025659
RightToes  -9.52052 -0.0310493 -0.0877053
Spine  -0.688857 0.0240307 1.32001
Spine1  -1.40499 0.00763581 3.19675
HEad  -56.8544 -5.49275 5.48825
LeftShoulder1  -1.94126e-019 -3.10601e-018 -2.51263e-017
LeftArm  -6.85372 16.0586 -83.1394
LeftForeArm  33.3051 -36.4108 -6.27132
LeftHand  -0.39129 -2.27581 6.12984
RightShoulder  -4.96962e-017 0 -2.36833e-017
RightArm  -36.2744 -23.6401 77.3207
RightForeArm  61.8441 9.27167 1.49616
RightHand  -0.277311 -2.30082 -10.1358
LeftUpLeg  -17.3322 2.78668 8.4294
LeftLeg  30.8786 10.5068 5.34854
LeftFoot  -3.09197 -0.0195378 -0.562367
LeftToes  -22.1295 1.46665e-006 1.03344e-007
510
root  -40.2974 34.5144 -49.741 -175.168 -3.62672 -176.815
RightUpLeg  -12.3254 -20.1317 7.21277
RightLeg  13.1017 -8.44624 -1.39343
RightFoot  0.915009 0.00860104 0.0108407
RightToes  -10.7382 -0.0360584 -0.0985144
Spine  -0.82092 0.308259 1.06364
Spine1  -1.67877 0.632333 2.66648
HEad  -57.111 -4.90208 5.15093
LeftShoulder1  -1.94126e-019 -3.10601e-018 -2.51263e-017
LeftArm  -8.39822 17.9918 -84.3401
LeftForeArm  32.7104 -35.5206 -6.06077
LeftHand  -0.397574 -2.29615 6.21013
RightShoulder  -4.96962e-017 0 -2.36833e-017
RightArm  -33.1111 -23.514 77.8645
RightForeArm  58.4303 11.0254 1.53336
RightHand  -0.296643 -1.76732 -9.32586
LeftUpLeg  -17.6538 -2.29711 8.67011
LeftLeg  25.8437 11.6931 4.71533
LeftFoot  2.21768 -0.00814639 0.58244
LeftToes  -23.1422 1.46665e-006 1.03344e-007
511
root  -40.6468 34.5485 -50.0291 -174.851 -1.79976 -177.122
RightUpLeg  -12.3193 -18.0094 6.25942
RightLeg  13.5217 -8.79162 -1.51598
RightFoot  0.943543 0.00698725 0.0199324
RightToes  -11.6998 -0.0401756 -0.106973
Spine  -0.814567 0.590002 0.919491
Spine1  -1.67539 1.25184 2.36838
HEad  -57.5276 -3.84972 4.78485
LeftShoulder1  -1.94126e-019 -3.10601e-018 -2.51263e-017
LeftArm  -10.9339 19.5551 -85.4051
LeftForeArm  31.4486 -33.6692 -5.65225
LeftHand  -0.396204 -2.29355 6.22211
RightShoulder  -4.96962e-017 0 -2.36833e-017
RightArm  -30.4145 -22.5026 78.3493
RightForeArm  56.8983 12.3669 1.44943
RightHand  -0.313664 -1.50386 -9.23529
LeftUpLeg  -18.0982 -4.44618 8.84946
LeftLeg  25.5044 11.2764 4.47346
LeftFoot  3.12542 -0.0166472 0.771755
LeftToes  -22.4667 1.46665e-006 1.03344e-007
512
root  -41.0121 34.5792 -50.3079 -174.743 -0.300078 -177.374
RightUpLeg  -12.283 -16.6405 5.28853
RightLeg  14.1364 -8.6925 -1.59499
RightFoot  0.958796 0.00538093 0.032946
RightToes  -12.8114 -0.0451115 -0.116665
Spine  -0.721114 0.704743 0.775816
Spine1  -1.50007 1.51934 2.08695
HEad  -58.312 -2.67093 4.51919
LeftShoulder1  -1.94126e-019 -3.10601e-018 -2.51263e-017
LeftArm  -13.3415 20.6135 -86.1279
LeftForeArm  30.2764 -30.4978 -4.94348
LeftHand  -0.392669 -2.10326 6.27951
RightShoulder  -4.96962e-017 0 -2.36833e-017
RightArm  -28.0539 -21.219 78.8921
RightForeArm  55.8319 13.7094 1.29967
RightHand  -0.324531 -1.46726 -9.47729
LeftUpLeg  -16.8003 -3.73766 8.16806
LeftLeg  24.2547 11.236 4.17934
LeftFoot  2.87055 -0.0136468 0.725121
LeftToes  -23.7524 1.46665e-006 1.03344e-007
513
root  -41.4266 34.6449 -50.5525 -174.491 1.20525 -178.28
RightUpLeg  -12.5977 -15.9322 3.66023
RightLeg  14.8603 -7.93461 -1.56072
RightFoot  0.996231 0.00411746 0.0491179
RightToes  -13.8998 -0.0501252 -0.126058
Spine  -0.694204 0.759187 0.409987
Spine1  -1.46852 1.65361 1.36769
HEad  -58.6772 -1.61553 4.49665
LeftShoulder1  -1.94126e-019 -3.10601e-018 -2.51263e-017
LeftArm  -15.4187 21.0176 -86.1924
LeftForeArm  28.6236 -25.3417 -3.93957
LeftHand  -0.392416 -1.6967 6.60386
RightShoulder  -4.96962e-017 0 -2.36833e-017
RightArm  -25.7803 -19.8311 79.5784
RightForeArm  54.1265 14.8243 1.18413
RightHand  -0.324137 -1.48172 -9.49893
LeftUpLeg  -14.58 -1.00023 6.33964
LeftLeg  20.789 10.714 3.27181
LeftFoot  2.77093 -0.0105757 0.677389
LeftToes  -20.9936 1.46665e-006 1.03344e-007
514
root  -41.8454 34.7401 -50.7919 -174.231 2.55173 -179.342
RightUpLeg  -12.7466 -15.378 1.88472
RightLeg  15.0355 -7.19966 -1.44
RightFoot  1.39504 0.0063189 0.01766
RightToes  -15.2566 -0.0566244 -0.137634
Spine  -0.769816 0.716924 -0.00612795
Spine1  -1.64218 1.58777 0.555431
HEad  -58.2982 -0.63123 4.34905
LeftShoulder1  -1.94126e-019 -3.10601e-018 -2.51263e-017
LeftArm  -18.8956 21.1283 -85.6651
LeftForeArm  26.3977 -19.2593 -3.13644
LeftHand  -0.412329 -1.41697 7.19312
RightShoulder  -4.96962e-017 0 -2.36833e-017
RightArm  -24.0812 -18.4725 80.3424
RightForeArm  53.2645 15.5271 1.13533
RightHand  -0.339064 -1.30719 -9.53892
LeftUpLeg  -12.539 -0.442374 4.42255
LeftLeg  17.4059 11.9251 2.88646
LeftFoot  3.47103 -0.0245553 0.894669
LeftToes  -18.8691 1.46665e-006 1.03344e-007
515
root  -42.2218 34.8279 -51.024 -173.986 3.40763 -179.924
RightUpLeg  -12.4543 -14.9826 0.653725
RightLeg  14.358 -6.80528 -1.27813
RightFoot  2.06148 0.0109419 -0.0484039
RightToes  -16.1639 -0.0611219 -0.145286
Spine  -0.909032 0.557007 -0.258045
Spine1  -1.92355 1.27071 0.0855284
HEad  -57.5719 0.0929882 4.20877
LeftShoulder1  -1.94126e-019 -3.10601e-018 -2.51263e-017
LeftArm  -21.5658 21.151 -84.6685
LeftForeArm  28.305 -13.6896 -2.3314
LeftHand  -0.426103 -0.217694 8.9065
RightShoulder  -4.96962e-017 0 -2.36833e-017
RightArm  -22.4102 -17.5285 81.0147
RightForeArm  52.9244 16.4077 1.11421
RightHand  -0.342168 -1.24751 -9.49542
LeftUpLeg  -10.9046 -1.61867 3.17972
LeftLeg  14.687 14.016 2.69463
LeftFoot  4.19433 -0.0452208 1.21589
LeftToes  -18.3886 1.46665e-006 1.03344e-007
